<?xml version="1.0" encoding="iso-8859-1"?>
<!-- Generator: Adobe Illustrator 19.0.0, SVG Export Plug-In . SVG Version: 6.00 Build 0)  -->
<svg version="1.1" id="Layer_1" xmlns="http://www.w3.org/2000/svg" xmlns:xlink="http://www.w3.org/1999/xlink" x="0px" y="0px"
	 viewBox="0 0 512 512" style="enable-background:new 0 0 512 512;" xml:space="preserve">
<path style="fill:#3C5D76;" d="M361.412,481.882V331.294c0-58.217-47.194-105.412-105.412-105.412s-105.412,47.194-105.412,105.412
	v150.588H361.412z"/>
<path style="fill:#1E2E3B;" d="M361.412,481.882V331.294c0-58.217-47.194-105.412-105.412-105.412c0,93.365,0,256,0,256H361.412z"/>
<rect x="120.471" y="466.824" style="fill:#91DC5A;" width="271.059" height="45.176"/>
<rect x="256" y="466.824" style="fill:#64C37D;" width="135.529" height="45.176"/>
<rect x="195.765" y="376.471" style="fill:#91DC5A;" width="120.471" height="45.176"/>
<rect x="256" y="376.471" style="fill:#64C37D;" width="60.235" height="45.176"/>
<path style="fill:#91DC5A;" d="M388.841,132.84C388.841,235.025,256,286.118,256,286.118S123.159,235.025,123.159,132.84
	C123.159,59.475,182.635,0,256,0S388.841,59.475,388.841,132.84z"/>
<path style="fill:#64C37D;" d="M256,0c73.365,0,132.841,59.475,132.841,132.84C388.841,235.025,256,286.118,256,286.118"/>
<path style="fill:#1E2E3B;" d="M341.795,168.82c-21.103,21.457-63.712,13.776-63.712,13.776s-8.388-42.476,12.717-63.934
	c21.103-21.459,63.712-13.776,63.712-13.776S362.9,147.361,341.795,168.82z"/>
<path style="fill:#3C5D76;" d="M170.205,168.82c21.106,21.457,63.712,13.776,63.712,13.776s8.388-42.476-12.717-63.934
	c-21.103-21.459-63.712-13.776-63.712-13.776S149.1,147.361,170.205,168.82z"/>
<path style="fill:#1E2E3B;" d="M225.882,225.882C225.882,242.515,239.366,256,256,256l0,0c16.634,0,30.118-13.485,30.118-30.118
	H225.882z"/>
<g>
</g>
<g>
</g>
<g>
</g>
<g>
</g>
<g>
</g>
<g>
</g>
<g>
</g>
<g>
</g>
<g>
</g>
<g>
</g>
<g>
</g>
<g>
</g>
<g>
</g>
<g>
</g>
<g>
</g>
</svg>
