<?xml version="1.0" encoding="UTF-8" standalone="no"?>
<svg
   width="533.3333333333333"
   height="533.3333333333333"
   version="1.1"
   id="svg1097"
   sodipodi:docname="shooter.svg"
   inkscape:version="1.1.1 (3bf5ae0d25, 2021-09-20)"
   xmlns:inkscape="http://www.inkscape.org/namespaces/inkscape"
   xmlns:sodipodi="http://sodipodi.sourceforge.net/DTD/sodipodi-0.dtd"
   xmlns="http://www.w3.org/2000/svg"
   xmlns:svg="http://www.w3.org/2000/svg">
  <defs
     id="defs1101" />
  <sodipodi:namedview
     id="namedview1099"
     pagecolor="#505050"
     bordercolor="#eeeeee"
     borderopacity="1"
     inkscape:pageshadow="0"
     inkscape:pageopacity="0"
     inkscape:pagecheckerboard="0"
     showgrid="false"
     inkscape:zoom="0.48750002"
     inkscape:cx="267.6923"
     inkscape:cy="273.84614"
     inkscape:window-width="1366"
     inkscape:window-height="705"
     inkscape:window-x="-8"
     inkscape:window-y="-8"
     inkscape:window-maximized="1"
     inkscape:current-layer="g846" />
  <g
     id="g1095">
    <title
       id="title1081">Layer 1</title>
    <g
       id="g846"
       transform="matrix(0.70311157,0.66940113,-0.71107954,0.66190019,275.05095,-18.276718)">
      <path
         fill="#ff4000"
         fill-rule="evenodd"
         stroke-width="3.7095"
         id="path671"
         d="m 236.14059,307.67665 c 0,0 9.90238,36.65217 21.92966,67.20197 12.02826,30.55078 36.21525,44.06616 39.5907,43.81835 3.37442,-0.24774 8.06453,-18.43202 7.97191,-28.61966 -0.0926,-10.18757 -22.21612,-28.95317 15.90723,0.53039 38.12239,29.48365 65.80896,41.04387 64.09122,30.12596 6.22271,-27.64258 -36.83513,-81.39976 -7.20938,-73.3804 29.62474,8.01947 79.34235,28.15664 50.03325,-7.07171 -29.30917,-35.22739 -60.96464,-49.89469 -33.18185,-51.0848 27.78181,-1.19003 53.84333,9.6399 42.15906,-14.1392 -11.68525,-23.77901 -73.81317,-57.53274 -100.46806,-71.71752 -22.75227,12.71442 -67.93998,45.00306 -100.82374,104.33662 z" />
      <path
         fill="#ffff33"
         fill-opacity="0.696296"
         fill-rule="evenodd"
         stroke-width="15.5476"
         stroke-linejoin="round"
         id="path672"
         d="m 261.34491,329.71379 c 0,0 -0.43838,54.81966 8.77894,69.35574 9.21702,14.53742 12.91273,11.67671 21.24514,-12.83235 8.33242,-24.50905 -9.18934,-43.45495 24.02596,-25.82139 33.21684,17.63206 59.65493,42.91771 48.84381,7.04027 -10.81239,-35.87713 -14.11249,-44.45947 9.80405,-36.18366 23.91655,8.27577 47.45261,13.53552 23.48051,-18.47671 -18.7467,-22.81161 32.42681,-41.0538 41.74069,-46.15507 19.77223,-1.15748 -74.96619,-38.59216 -85.73815,-36.27381 -12.31426,4.71562 -86.018,89.75942 -92.18096,99.34698 z" />
      <path
         fill="#d9d9d9"
         fill-rule="evenodd"
         stroke="#000000"
         stroke-width="10"
         stroke-linejoin="round"
         id="path663"
         d="M 17.806299,31.098999 C 96.663299,32.794701 295.92429,65.015602 372.23727,260.88568 345.95129,265.97369 281.51028,328.7197 271.3353,363.4837 77.1613,264.27768 22.0459,107.4117 17.806299,31.098999 Z" />
      <path
         fill="#bfbfbf"
         fill-rule="evenodd"
         stroke="#000000"
         stroke-width="10"
         stroke-linejoin="round"
         id="path664"
         d="m 163.64931,292.2587 c 0,0 3.39099,86.488 3.39099,87.336 0,0.84799 104.295,48.332 110.22999,50.876 l -5.087,-67.83401 c -9.327,0.84799 -92.42398,-52.57098 -108.53398,-70.37799 z" />
      <path
         fill="#bfbfbf"
         fill-rule="evenodd"
         stroke="#000000"
         stroke-width="10"
         stroke-linejoin="round"
         id="path665"
         d="m 304.73355,151.35278 c 0,0 85.53095,3.82004 86.37866,3.84088 0.84775,0.0208 45.7544,105.45127 48.1518,111.44696 l -67.68851,-6.75244 c -9.09866,-33.04559 -46.89285,-88.60014 -66.84195,-108.5354 z" />
      <path
         fill="#bfbfbf"
         fill-rule="evenodd"
         stroke="#000000"
         stroke-width="10"
         stroke-linejoin="round"
         id="path666"
         d="m 235.31677,210.16905 c 0,0 14.25998,34.12261 16.66716,39.68585 2.95384,3.74834 77.58904,64.65636 83.06761,68.07418 l -3.17886,-21.68073 c -7.99423,-7.69864 -76.80339,-68.01597 -96.55591,-86.0793 z" />
      <path
         fill="#bfbfbf"
         fill-rule="evenodd"
         stroke="#000000"
         stroke-width="10"
         stroke-linejoin="round"
         id="path667"
         d="m 231.95744,209.88188 -16.76851,24.28023 20.64479,35.73391 85.75397,67.74439 12.3876,-18.54547 -81.99136,-69.24004 z" />
      <path
         fill="#bfbfbf"
         fill-rule="evenodd"
         stroke="#000000"
         stroke-width="12.5"
         stroke-linejoin="round"
         id="path668"
         d="m 124.645,131.15401 c -28.829799,39.00399 30.52401,87.336 58.506,52.571 33.91699,-42.39601 -24.589,-83.09601 -58.506,-52.571 z" />
      <path
         fill="#aeffff"
         fill-rule="evenodd"
         stroke="#000000"
         stroke-width="10"
         stroke-linejoin="round"
         id="path669"
         d="m 132.276,135.393 c 21.198,-20.35 70.377,4.23999 48.332,40.70099 C 156.01801,207.466 105.991,167.615 132.276,135.393 Z" />
      <path
         fill="#ffffff"
         fill-opacity="0.75"
         fill-rule="evenodd"
         stroke-width="12.5"
         stroke-linejoin="round"
         id="path670"
         d="m 148.386,134.502 c -6.86088,4.73755 -24.90051,19.62388 -10.175,37.352 12.71899,3.392 30.52499,-35.656 10.175,-37.352 z" />
    </g>
  </g>
</svg>
