<?xml version="1.0" encoding="UTF-8" standalone="no"?>
<!-- Generator: Adobe Illustrator 19.0.0, SVG Export Plug-In . SVG Version: 6.00 Build 0)  -->

<svg
   version="1.1"
   id="Layer_1"
   x="0px"
   y="0px"
   viewBox="0 0 511.999 511.999"
   style="enable-background:new 0 0 511.999 511.999;"
   xml:space="preserve"
   sodipodi:docname="ufo.svg"
   inkscape:version="1.1.1 (3bf5ae0d25, 2021-09-20)"
   xmlns:inkscape="http://www.inkscape.org/namespaces/inkscape"
   xmlns:sodipodi="http://sodipodi.sourceforge.net/DTD/sodipodi-0.dtd"
   xmlns="http://www.w3.org/2000/svg"
   xmlns:svg="http://www.w3.org/2000/svg"><defs
   id="defs1277" /><sodipodi:namedview
   id="namedview1275"
   pagecolor="#505050"
   bordercolor="#eeeeee"
   borderopacity="1"
   inkscape:pageshadow="0"
   inkscape:pageopacity="0"
   inkscape:pagecheckerboard="0"
   showgrid="false"
   inkscape:zoom="1.015627"
   inkscape:cx="255.50719"
   inkscape:cy="249.59951"
   inkscape:window-width="1366"
   inkscape:window-height="705"
   inkscape:window-x="-8"
   inkscape:window-y="-8"
   inkscape:window-maximized="1"
   inkscape:current-layer="Layer_1" />

<path
   style="opacity:0.1;fill:#231F20;enable-background:new    ;"
   d="M138.019,505.952c-1.437-2.202-1.667-4.98-0.61-7.387  l56.945-129.704c1.242-2.828,4.039-4.655,7.127-4.655h-18.348c-3.088,0-5.885,1.827-7.127,4.655L119.06,498.565  c-1.056,2.408-0.826,5.185,0.61,7.387c1.438,2.2,3.889,3.527,6.516,3.527h18.348C141.907,509.479,139.456,508.152,138.019,505.952z"
   id="path1214" />
<path
   style="fill:#CAE9F7;"
   d="M256,121.117c-4.606,0-8.34-3.733-8.34-8.34V62.892c0-4.606,3.734-8.34,8.34-8.34  c4.606,0,8.34,3.734,8.34,8.34v49.886C264.34,117.384,260.606,121.117,256,121.117z"
   id="path1216" />
<path
   style="fill:#9dec90;fill-opacity:1"
   d="M105.744,238.047h300.512C393.298,166.806,330.98,112.777,256,112.777  C181.02,112.777,118.702,166.806,105.744,238.047z"
   id="path1218" />
<path
   style="fill:#45743a;fill-opacity:1"
   d="M333.362,238.047v-31.063c0-11.741-9.518-21.259-21.26-21.259H199.901  c-11.742,0-21.259,9.52-21.259,21.259v31.063H333.362z"
   id="path1220" />
<circle
   style="fill:#FF4D30;"
   cx="256.006"
   cy="33.228"
   r="30.709"
   id="circle1222" />
<g
   id="g1230">
	<path
   style="opacity:0.1;fill:#231F20;enable-background:new    ;"
   d="M265.174,113.057c-3.036-0.18-6.094-0.28-9.174-0.28   c-74.98,0-137.298,54.029-150.256,125.269h18.348C136.517,169.734,194.333,117.255,265.174,113.057z"
   id="path1224" />
	<path
   style="opacity:0.1;fill:#231F20;enable-background:new    ;"
   d="M218.249,185.725h-18.348   c-11.742,0-21.259,9.52-21.259,21.259v31.063h18.348v-31.063C196.989,195.245,206.506,185.725,218.249,185.725z"
   id="path1226" />
	<path
   style="opacity:0.1;fill:#231F20;enable-background:new    ;"
   d="M243.639,33.228c0-13.764,9.057-25.412,21.535-29.312   c-2.897-0.905-5.978-1.394-9.174-1.394c-16.958,0-30.709,13.747-30.709,30.707S239.042,63.936,256,63.936   c3.196,0,6.277-0.489,9.174-1.396C252.696,58.639,243.639,46.992,243.639,33.228z"
   id="path1228" />
</g>
<path
   style="fill:#45743a;fill-opacity:1"
   d="M137.063,342.948h-35.195c-11.741,0-21.258,9.519-21.258,21.259l0,0  c0,11.739,9.519,21.259,21.258,21.259h308.264c11.741,0,21.258-9.52,21.258-21.259l0,0c0-11.742-9.519-21.259-21.258-21.259h-32.888  H137.063z"
   id="path1232" />
<path
   style="fill:#3ec93e;fill-opacity:1"
   d="M367.236,344.06H490.74c11.741,0,21.259-9.521,21.259-21.259v-17.6  c0-37.701-30.563-68.266-68.267-68.266H68.267C30.565,236.935,0,267.499,0,305.201v17.6c0,11.739,9.52,21.259,21.259,21.259H367.236  "
   id="path1234" />
<g
   id="g1240">
	<path
   style="opacity:0.1;fill:#231F20;enable-background:new    ;"
   d="M98.957,364.207c0-11.742,9.519-21.259,21.258-21.259   h-18.348c-11.741,0-21.258,9.519-21.258,21.259c0,11.739,9.519,21.259,21.258,21.259h18.348   C108.476,385.467,98.957,375.946,98.957,364.207z"
   id="path1236" />
	<path
   style="opacity:0.1;fill:#231F20;enable-background:new    ;"
   d="M18.348,322.8v-17.6c0-37.701,30.565-68.266,68.267-68.266   H68.267C30.565,236.935,0,267.499,0,305.201v17.6c0,11.739,9.52,21.259,21.259,21.259h18.348   C27.868,344.06,18.348,334.54,18.348,322.8z"
   id="path1238" />
</g>
<path
   style="fill:#FF9737;"
   d="M449.107,298.837H62.893c-4.607,0-8.34-3.733-8.34-8.34c0-4.607,3.733-8.34,8.34-8.34h386.216  c4.607,0,8.34,3.733,8.34,8.34C457.448,295.104,453.714,298.837,449.107,298.837z"
   id="path1242" />
<g
   id="g1244">
</g>
<g
   id="g1246">
</g>
<g
   id="g1248">
</g>
<g
   id="g1250">
</g>
<g
   id="g1252">
</g>
<g
   id="g1254">
</g>
<g
   id="g1256">
</g>
<g
   id="g1258">
</g>
<g
   id="g1260">
</g>
<g
   id="g1262">
</g>
<g
   id="g1264">
</g>
<g
   id="g1266">
</g>
<g
   id="g1268">
</g>
<g
   id="g1270">
</g>
<g
   id="g1272">
</g>
</svg>
